<svg width="217" height="45" viewBox="0 0 217 45" fill="none" xmlns="http://www.w3.org/2000/svg">
<rect width="40" height="45" fill="#EB3C3C"/>
<path d="M5.85857 39.5255V22.4749H0V18.4706H16.5611V22.4749H10.7025V39.5255H5.85857ZM23.974 39.913C22.9486 39.913 21.9558 39.73 20.9957 39.364C20.0357 38.9765 19.1847 38.4275 18.4428 37.7171C17.7227 37.0067 17.1445 36.1348 16.7081 35.1014C16.2718 34.0465 16.0535 32.8517 16.0535 31.5169C16.0535 30.1821 16.2718 28.9981 16.7081 27.9647C17.1445 26.9098 17.7227 26.0271 18.4428 25.3167C19.1847 24.6062 20.0357 24.068 20.9957 23.702C21.9558 23.3145 22.9486 23.1208 23.974 23.1208C24.9996 23.1208 25.9815 23.3145 26.9197 23.702C27.8798 24.068 28.7198 24.6062 29.4399 25.3167C30.1818 26.0271 30.7709 26.9098 31.2073 27.9647C31.6437 28.9981 31.8618 30.1821 31.8618 31.5169C31.8618 32.8517 31.6437 34.0465 31.2073 35.1014C30.7709 36.1348 30.1818 37.0067 29.4399 37.7171C28.7198 38.4275 27.8798 38.9765 26.9197 39.364C25.9815 39.73 24.9996 39.913 23.974 39.913ZM23.974 36.0702C24.9559 36.0702 25.6979 35.6612 26.1996 34.843C26.7015 34.0249 26.9524 32.9163 26.9524 31.5169C26.9524 30.1175 26.7015 29.0089 26.1996 28.1907C25.6979 27.3726 24.9559 26.9636 23.974 26.9636C22.9704 26.9636 22.2176 27.3726 21.7157 28.1907C21.2357 29.0089 20.9957 30.1175 20.9957 31.5169C20.9957 32.9163 21.2357 34.0249 21.7157 34.843C22.2176 35.6612 22.9704 36.0702 23.974 36.0702ZM40.034 39.913C38.2666 39.913 36.9792 39.3425 36.1719 38.2015C35.3864 37.0605 34.9937 35.4781 34.9937 33.4545V23.5083H39.8049V32.8409C39.8049 34.0034 39.9686 34.8 40.2958 35.2306C40.6231 35.6612 41.1359 35.8764 41.8341 35.8764C42.445 35.8764 42.9579 35.7364 43.3724 35.4566C43.787 35.1768 44.2343 34.7247 44.7143 34.1003V23.5083H49.5255V39.5255H45.598L45.238 37.2973H45.1398C44.4415 38.1154 43.6888 38.7613 42.8815 39.2349C42.096 39.687 41.1468 39.913 40.034 39.913ZM53.7594 39.5255V23.5083H57.687L58.0143 26.3178H58.1452C58.7343 25.2198 59.4434 24.4125 60.2726 23.8958C61.1017 23.3791 61.9309 23.1208 62.76 23.1208C63.2182 23.1208 63.5891 23.1531 63.8728 23.2177C64.1782 23.2607 64.451 23.3361 64.6911 23.4437L63.9056 27.5449C63.6001 27.4588 63.3164 27.3942 63.0546 27.3511C62.7928 27.308 62.4873 27.2865 62.1382 27.2865C61.5272 27.2865 60.8835 27.5018 60.2071 27.9324C59.5525 28.363 59.007 29.1272 58.5707 30.2252V39.5255H53.7594ZM73.4769 39.913C71.9059 39.913 70.5093 39.6224 69.2875 39.0411C68.0656 38.4383 67.0292 37.6633 66.1782 36.716L67.1601 35.6827C67.9456 36.5654 68.8838 37.265 69.9748 37.7817C71.0657 38.2984 72.2332 38.5567 73.4769 38.5567C75.1351 38.5567 76.4443 38.1692 77.4044 37.3942C78.3644 36.5977 78.8445 35.5643 78.8445 34.2941C78.8445 33.6267 78.7354 33.0669 78.5172 32.6148C78.3208 32.1413 78.048 31.7429 77.699 31.42C77.3498 31.0756 76.9352 30.785 76.4552 30.5481C75.997 30.3113 75.5061 30.0745 74.9824 29.8377L71.7095 28.3845C71.2513 28.1907 70.7603 27.9539 70.2366 27.6741C69.713 27.3942 69.2329 27.0497 68.7966 26.6407C68.3819 26.2101 68.0328 25.715 67.7492 25.1552C67.4655 24.574 67.3237 23.885 67.3237 23.0885C67.3237 22.3135 67.4764 21.6138 67.7819 20.9895C68.1092 20.3436 68.5456 19.7946 69.0911 19.3425C69.6584 18.8689 70.3239 18.5029 71.0876 18.2446C71.8731 17.9862 72.7132 17.8571 73.6078 17.8571C74.917 17.8571 76.0733 18.1154 77.0771 18.6321C78.1026 19.1272 78.9427 19.7193 79.5973 20.4082L78.7463 21.377C78.1135 20.7311 77.3717 20.2144 76.5207 19.8269C75.6697 19.4179 74.6987 19.2134 73.6078 19.2134C72.1677 19.2134 71.0112 19.5578 70.1385 20.2467C69.2656 20.9356 68.8293 21.8614 68.8293 23.0239C68.8293 23.6482 68.9493 24.1757 69.1893 24.6062C69.4293 25.0368 69.7348 25.4136 70.1057 25.7365C70.4766 26.0379 70.8803 26.307 71.3167 26.5438C71.7531 26.7591 72.1677 26.9528 72.5604 27.1251L75.8334 28.546C76.4443 28.8043 77.0225 29.0949 77.5681 29.4179C78.1135 29.7408 78.5935 30.1175 79.0081 30.5481C79.4227 30.9787 79.75 31.4954 79.99 32.0982C80.2519 32.6794 80.3828 33.3791 80.3828 34.1972C80.3828 35.0153 80.2191 35.7795 79.8918 36.49C79.5645 37.1789 79.0954 37.7817 78.4845 38.2984C77.8953 38.7936 77.1753 39.1918 76.3243 39.4932C75.4734 39.773 74.5242 39.913 73.4769 39.913ZM87.1736 39.5255L82.526 24.025H84.097L86.9117 34.068C87.1081 34.7785 87.2937 35.4781 87.4681 36.167C87.6427 36.8344 87.8173 37.5126 87.9918 38.2015H88.1227C88.2973 37.5126 88.4828 36.8344 88.6791 36.167C88.8755 35.4781 89.0719 34.7785 89.2683 34.068L92.1157 24.025H93.8503L96.6978 34.068C96.8941 34.7785 97.0905 35.4781 97.2869 36.167C97.4833 36.8344 97.6796 37.5126 97.876 38.2015H98.0069C98.1818 37.5126 98.367 36.8344 98.5633 36.167C98.7597 35.4781 98.9449 34.7785 99.1197 34.068L101.902 24.025H103.375L98.8579 39.5255H96.9596L94.2103 29.9023C93.97 29.1487 93.7633 28.4168 93.5885 27.7063C93.436 26.9744 93.2397 26.2317 92.9993 25.4781H92.8684C92.694 26.2317 92.4976 26.9851 92.2794 27.7386C92.083 28.4706 91.8648 29.2133 91.6248 29.9668L88.9082 39.5255H87.1736ZM107.157 39.5255V24.025H108.597V39.5255H107.157ZM107.91 20.279C107.539 20.279 107.223 20.1606 106.961 19.9238C106.72 19.687 106.601 19.3856 106.601 19.0196C106.601 18.6106 106.72 18.2984 106.961 18.0831C107.223 17.8463 107.539 17.7279 107.91 17.7279C108.281 17.7279 108.586 17.8463 108.826 18.0831C109.088 18.2984 109.219 18.6106 109.219 19.0196C109.219 19.3856 109.088 19.687 108.826 19.9238C108.586 20.1606 108.281 20.279 107.91 20.279ZM118.924 39.913C118.16 39.913 117.528 39.7946 117.026 39.5578C116.523 39.3425 116.12 39.0303 115.815 38.6213C115.509 38.2123 115.291 37.7171 115.16 37.1358C115.051 36.5546 114.996 35.9195 114.996 35.2306V25.2521H112.542V24.1541L115.029 24.025L115.225 19.5363H116.469V24.025H121.019V25.2521H116.469V35.3597C116.469 35.8549 116.502 36.307 116.567 36.716C116.654 37.1035 116.796 37.448 116.993 37.7494C117.189 38.0292 117.451 38.2553 117.778 38.4275C118.127 38.5782 118.575 38.6536 119.12 38.6536C119.426 38.6536 119.753 38.6105 120.102 38.5244C120.473 38.4167 120.801 38.2984 121.084 38.1692L121.477 39.3317C121.019 39.504 120.56 39.6439 120.102 39.7515C119.644 39.8592 119.251 39.913 118.924 39.913ZM122.705 39.5255V38.7505L132 25.2521H123.719V24.025H133.865V24.7677L124.603 38.2661H134.193V39.5255H122.705ZM143.702 39.913C142.699 39.913 141.749 39.73 140.854 39.364C139.982 38.998 139.218 38.4706 138.563 37.7817C137.909 37.0712 137.385 36.2208 136.992 35.2306C136.621 34.2187 136.436 33.0777 136.436 31.8075C136.436 30.5373 136.621 29.3964 136.992 28.3845C137.385 27.3726 137.898 26.5223 138.531 25.8334C139.185 25.1229 139.917 24.5847 140.724 24.2187C141.553 23.8312 142.404 23.6375 143.276 23.6375C145.153 23.6375 146.626 24.2618 147.695 25.5104C148.764 26.7591 149.299 28.5245 149.299 30.8065C149.299 31.0002 149.299 31.194 149.299 31.3877C149.299 31.5815 149.277 31.7752 149.233 31.969H137.909C137.93 32.9378 138.084 33.842 138.367 34.6816C138.65 35.4997 139.043 36.2101 139.545 36.8129C140.069 37.3942 140.691 37.8571 141.411 38.2015C142.131 38.5244 142.938 38.6859 143.833 38.6859C144.684 38.6859 145.448 38.5675 146.124 38.3307C146.822 38.0723 147.466 37.7279 148.055 37.2973L148.644 38.3952C148.011 38.7613 147.313 39.1057 146.549 39.4286C145.808 39.7515 144.859 39.913 143.702 39.913ZM137.909 30.8065H147.924C147.924 28.8043 147.51 27.3188 146.68 26.3501C145.851 25.3598 144.728 24.8646 143.309 24.8646C142.633 24.8646 141.989 25.0046 141.378 25.2844C140.768 25.5427 140.211 25.9302 139.709 26.4469C139.229 26.9636 138.825 27.588 138.498 28.3199C138.192 29.0518 137.996 29.8808 137.909 30.8065ZM153.567 39.5255V24.025H154.81L154.941 26.899H155.039C155.563 25.9302 156.196 25.1444 156.938 24.5417C157.702 23.9389 158.553 23.6375 159.491 23.6375C159.796 23.6375 160.069 23.659 160.309 23.702C160.549 23.7451 160.8 23.8312 161.062 23.9604L160.734 25.2521C160.472 25.1444 160.243 25.0798 160.047 25.0583C159.851 25.0153 159.6 24.9938 159.294 24.9938C158.596 24.9938 157.854 25.2952 157.069 25.898C156.305 26.4792 155.617 27.5018 155.007 28.9658V39.5255H153.567ZM165.885 39.913C164.598 39.913 163.954 39.0949 163.954 37.4588V16.307H165.394V37.6525C165.394 37.9969 165.46 38.2553 165.59 38.4275C165.721 38.5782 165.885 38.6536 166.081 38.6536C166.147 38.6536 166.212 38.6536 166.278 38.6536C166.366 38.6536 166.497 38.6321 166.671 38.589L166.932 39.7515C166.78 39.7946 166.628 39.8269 166.474 39.8484C166.322 39.8915 166.125 39.913 165.885 39.913ZM175.158 39.913C174.525 39.913 173.936 39.8269 173.39 39.6547C172.845 39.4824 172.365 39.2241 171.95 38.8796C171.536 38.5352 171.209 38.0938 170.968 37.5556C170.728 37.0175 170.608 36.3823 170.608 35.6504C170.608 33.9281 171.415 32.6256 173.03 31.7429C174.667 30.8387 177.241 30.1929 180.754 29.8054C180.754 29.2241 180.711 28.6428 180.624 28.0616C180.537 27.4588 180.35 26.9313 180.067 26.4792C179.784 26.0056 179.401 25.6288 178.922 25.349C178.442 25.0475 177.809 24.8969 177.023 24.8969C175.976 24.8969 175.016 25.1014 174.143 25.5104C173.271 25.9195 172.561 26.3178 172.016 26.7053L171.361 25.6396C171.644 25.4459 171.983 25.2306 172.376 24.9938C172.79 24.7569 173.248 24.5417 173.75 24.3479C174.253 24.1541 174.798 23.9927 175.387 23.8635C175.976 23.7128 176.587 23.6375 177.22 23.6375C178.136 23.6375 178.91 23.7989 179.543 24.1219C180.177 24.4233 180.689 24.8431 181.082 25.3813C181.475 25.9195 181.758 26.5546 181.933 27.2865C182.108 27.997 182.195 28.772 182.195 29.6116V39.5255H180.951L180.82 37.5233H180.722C179.915 38.1477 179.041 38.7074 178.103 39.2026C177.187 39.6762 176.205 39.913 175.158 39.913ZM175.42 38.6859C176.336 38.6859 177.208 38.4706 178.038 38.04C178.867 37.6094 179.773 36.9852 180.754 36.167V30.9033C179.14 31.0971 177.776 31.3339 176.663 31.6138C175.55 31.8936 174.656 32.2273 173.979 32.6148C173.303 33.0024 172.812 33.4437 172.507 33.9389C172.223 34.434 172.081 34.983 172.081 35.5858C172.081 36.1456 172.168 36.6191 172.343 37.0067C172.518 37.3942 172.757 37.7171 173.063 37.9754C173.369 38.2123 173.718 38.3953 174.11 38.5244C174.525 38.6321 174.961 38.6859 175.42 38.6859ZM187.798 39.5255V24.025H189.042L189.172 26.4146H189.271C190.079 25.6181 190.907 24.9615 191.758 24.4448C192.609 23.9066 193.581 23.6375 194.671 23.6375C196.307 23.6375 197.508 24.1219 198.271 25.0906C199.035 26.0594 199.417 27.5557 199.417 29.5793V39.5255H197.977V29.7731C197.977 28.1154 197.693 26.899 197.126 26.124C196.581 25.3275 195.664 24.9292 194.376 24.9292C193.439 24.9292 192.588 25.1767 191.824 25.6719C191.061 26.1455 190.198 26.8667 189.238 27.8355V39.5255H187.798ZM210.421 39.913C208.436 39.913 206.854 39.2241 205.676 37.8463C204.497 36.4469 203.908 34.434 203.908 31.8075C203.908 30.5589 204.094 29.4287 204.465 28.4168C204.836 27.4049 205.338 26.5438 205.97 25.8334C206.625 25.1229 207.367 24.5847 208.196 24.2187C209.047 23.8312 209.942 23.6375 210.88 23.6375C211.84 23.6375 212.669 23.8097 213.367 24.1541C214.087 24.4771 214.84 24.94 215.625 25.5427L215.56 22.701V16.307H217V39.5255H215.756L215.625 37.5233H215.527C214.895 38.1477 214.142 38.7074 213.269 39.2026C212.418 39.6762 211.469 39.913 210.421 39.913ZM210.618 38.6536C211.491 38.6536 212.32 38.4383 213.105 38.0077C213.913 37.5556 214.731 36.9206 215.56 36.1025V26.899C214.731 26.1671 213.946 25.6504 213.203 25.349C212.483 25.0475 211.742 24.8969 210.978 24.8969C210.192 24.8969 209.462 25.0798 208.785 25.4459C208.109 25.7903 207.52 26.2747 207.018 26.899C206.538 27.5018 206.156 28.2338 205.872 29.0949C205.589 29.9345 205.447 30.8387 205.447 31.8075C205.447 32.8409 205.556 33.7774 205.774 34.617C206.014 35.4566 206.353 36.1778 206.788 36.7806C207.225 37.3619 207.76 37.8248 208.392 38.1692C209.047 38.4921 209.789 38.6536 210.618 38.6536Z" fill="white"/>
</svg>
