<svg width="13" height="13" viewBox="0 0 13 13" fill="none" xmlns="http://www.w3.org/2000/svg">
<path d="M12.5363 0H7.42935C7.30623 2.72035e-05 7.18817 0.0489663 7.10112 0.136045L0.137025 7.10014C-0.044395 7.28134 -0.0445583 7.5753 0.136671 7.75672C0.13678 7.75683 0.136916 7.75696 0.137025 7.75707L5.24402 12.8641C5.42533 13.0453 5.71921 13.0453 5.90049 12.8641L12.8646 5.89997C12.9518 5.81281 13.0007 5.69456 13.0006 5.57127V0.464282C13.0006 0.207862 12.7928 0 12.5363 0ZM9.75071 4.17845C9.2379 4.17845 8.82217 3.76273 8.82217 3.24992C8.82217 2.73711 9.2379 2.32138 9.75071 2.32138C10.2635 2.32138 10.6792 2.73711 10.6792 3.24992C10.6792 3.76273 10.2635 4.17845 9.75071 4.17845Z" fill="black" fill-opacity="0.9"/>
</svg>
