<svg width="37" height="46" viewBox="0 0 37 46" fill="none" xmlns="http://www.w3.org/2000/svg">
<path d="M21.3078 8.12531H15.0883C13.152 10.3324 10.7222 12.0324 7.9895 13.0945V21.2413C7.9895 28.1302 11.9779 34.3092 18.1981 37.1374C24.4182 34.3093 28.4066 28.1303 28.4066 21.2413V13.0952C25.6737 12.033 23.244 10.3328 21.3078 8.12531ZM24.8558 17.6237C25.5912 17.6237 26.1874 18.2199 26.1874 18.9553V24.2815C26.1874 25.0169 25.5912 25.613 24.8558 25.613H22.1927V28.2761C22.1927 29.0115 21.5966 29.6077 20.8612 29.6077H15.535C14.7996 29.6077 14.2034 29.0115 14.2034 28.2761V25.613H11.5403C10.8049 25.613 10.2088 25.0169 10.2088 24.2815V18.9553C10.2088 18.2199 10.8049 17.6237 11.5403 17.6237H14.2034V14.9606C14.2034 14.2252 14.7996 13.6291 15.535 13.6291H20.8612C21.5966 13.6291 22.1927 14.2252 22.1927 14.9606V17.6237H24.8558Z" fill="black"/>
<path d="M19.5296 18.9553V16.2922H16.8665V18.9553C16.8665 19.6907 16.2703 20.2869 15.5349 20.2869H12.8718V22.95H15.5349C16.2703 22.95 16.8665 23.5462 16.8665 24.2816V26.9447H19.5296V24.2816C19.5296 23.5462 20.1258 22.95 20.8611 22.95H23.5243V20.2869H20.8611C20.1258 20.2869 19.5296 19.6907 19.5296 18.9553Z" fill="black"/>
<path d="M35.0562 6.3499C31.2182 6.3499 27.7216 4.24107 25.931 0.846325C25.7006 0.409398 25.2472 0.135986 24.7532 0.135986H11.6426C11.1486 0.135986 10.6953 0.409398 10.4648 0.846325C8.67418 4.24107 5.17761 6.3499 1.33155 6.3499C0.59618 6.3499 0 6.94608 0 7.68145V21.2412C0 26.6924 1.70323 31.8977 4.92559 36.2945C8.14795 40.6913 12.5988 43.8829 17.7969 45.5244C17.9274 45.5656 18.0627 45.5862 18.1979 45.5862C18.3331 45.5862 18.4684 45.5656 18.5989 45.5244C23.797 43.8829 28.2478 40.6913 31.4702 36.2945C34.6925 31.8977 36.3958 26.6924 36.3958 21.2412V7.68145C36.3958 6.94608 35.7916 6.3499 35.0562 6.3499ZM31.0696 21.2413C31.0696 29.3959 26.2183 36.6879 18.7104 39.8186C18.5464 39.8869 18.3721 39.9211 18.1979 39.9211C18.0236 39.9211 17.8494 39.8869 17.6854 39.8186C10.1775 36.6879 5.32621 29.3959 5.32621 21.2413V12.1577C5.32621 11.5825 5.6955 11.0724 6.24188 10.8927C9.06814 9.96356 11.5573 8.25482 13.4401 5.95114C13.693 5.64169 14.0714 5.4622 14.471 5.4622H21.9246C22.3243 5.4622 22.7028 5.64169 22.9557 5.95114C24.8384 8.25517 27.3275 9.96418 30.1539 10.8936C30.7003 11.0733 31.0695 11.5834 31.0695 12.1586V21.2413H31.0696Z" fill="black"/>
</svg>
