<svg width="38" height="37" viewBox="0 0 38 37" fill="none" xmlns="http://www.w3.org/2000/svg">
<g clip-path="url(#clip0)">
<path d="M37.9454 14.2549C37.8145 13.8624 37.4662 13.5764 37.0469 13.5171L25.2667 11.8503L19.9983 1.45663C19.8108 1.08663 19.4238 0.852417 19.0001 0.852417C18.5763 0.852417 18.1893 1.08663 18.0018 1.45663L12.7331 11.8503L0.953178 13.5171C0.533918 13.5764 0.185462 13.8624 0.0545408 14.2548C-0.0764548 14.6473 0.0327948 15.0781 0.336274 15.366L8.86012 23.4564L6.8482 34.8804C6.77651 35.2871 6.94825 35.698 7.29106 35.9406C7.485 36.0777 7.7147 36.1475 7.94552 36.1475C8.12276 36.1475 8.30058 36.1064 8.46342 36.023L19 30.6293L29.5361 36.0229C29.9113 36.215 30.3657 36.183 30.7085 35.9405C31.0514 35.698 31.2232 35.2869 31.1516 34.8802L29.139 23.4564L37.6638 15.366C37.9672 15.0781 38.0765 14.6473 37.9454 14.2549Z" fill="black"/>
</g>
<defs>
<clipPath id="clip0">
<rect width="38" height="37" fill="white"/>
</clipPath>
</defs>
</svg>
